<svg width="54" height="50" viewBox="0 0 54 50" fill="none" xmlns="http://www.w3.org/2000/svg">
<g clip-path="url(#clip0_125_208)">
<path d="M36.4997 13.5003H33.333C33.333 10.0012 30.4988 7.16699 26.9997 7.16699C23.5005 7.16699 20.6663 10.0012 20.6663 13.5003H17.4997C15.758 13.5003 14.333 14.9253 14.333 16.667V35.667C14.333 37.4087 15.758 38.8337 17.4997 38.8337H36.4997C38.2413 38.8337 39.6663 37.4087 39.6663 35.667V16.667C39.6663 14.9253 38.2413 13.5003 36.4997 13.5003ZM26.9997 10.3337C28.7413 10.3337 30.1663 11.7587 30.1663 13.5003H23.833C23.833 11.7587 25.258 10.3337 26.9997 10.3337ZM36.4997 35.667H17.4997V16.667H20.6663V19.8337C20.6663 20.7045 21.3788 21.417 22.2497 21.417C23.1205 21.417 23.833 20.7045 23.833 19.8337V16.667H30.1663V19.8337C30.1663 20.7045 30.8788 21.417 31.7497 21.417C32.6205 21.417 33.333 20.7045 33.333 19.8337V16.667H36.4997V35.667Z" fill="#9949B4"/>
</g>
<defs>
<clipPath id="clip0_125_208">
<rect width="38" height="38" fill="white" transform="translate(8 4)"/>
</clipPath>
</defs>
</svg>
