<svg width="37" height="37" viewBox="0 0 37 37" fill="none" xmlns="http://www.w3.org/2000/svg">
<path d="M15.215 15.0341H20.9779C22.2639 15.0341 23.3089 14.6797 24.1125 13.9713C24.9164 13.2628 25.3182 12.3211 25.3182 11.1461V9.38342C25.3182 8.41574 24.8962 7.64677 24.0522 7.0765C23.5945 6.76718 23.0539 6.5419 22.4306 6.40038C23.2069 5.84513 23.818 5.11457 24.1852 4.25187C24.7847 2.84389 24.6124 1.37771 23.8781 0.166992C26.3802 0.471549 28.4779 1.19359 30.1709 2.33312C32.4818 3.88825 33.6371 5.97914 33.6371 8.60578V11.1979C33.6371 12.3383 33.3056 13.427 32.6425 14.4639C32.1723 15.1989 31.5658 15.8385 30.8229 16.3825L23.5411 20.9463C23.4711 20.9448 23.4004 20.9439 23.3288 20.9439H14.6816C16.31 19.2474 16.5412 16.9143 15.215 15.0341Z" fill="#F6543B"/>
<path d="M12.404 15.0341H20.9778C22.2638 15.0341 23.3088 14.6797 24.1125 13.9713C24.9161 13.2628 25.3182 12.3211 25.3182 11.1461V9.38342C25.3182 8.41574 24.8962 7.64677 24.0522 7.0765C23.5944 6.76718 23.0539 6.5419 22.4305 6.40038C23.2069 5.84513 23.8179 5.11457 24.1852 4.25187C24.7847 2.84389 24.6124 1.37771 23.878 0.166992C26.3801 0.471549 28.4778 1.19359 30.1708 2.33312C32.4817 3.88825 33.6371 5.97914 33.6371 8.60578V11.1979C33.6371 12.3383 33.3056 13.427 32.6424 14.4639C32.1723 15.1989 31.5657 15.8385 30.8228 16.3825L23.541 20.9463C23.471 20.9448 23.4003 20.9439 23.3288 20.9439H12.2872C9.325 21.0265 9.01636 15.1105 12.404 15.0341Z" fill="#FAC900"/>
<path d="M0 6.23454V0H20.9783C21.9989 0 22.9655 0.0555972 23.8785 0.166792C26.5829 0.315099 25.9735 6.80337 22.431 6.40018C21.9052 6.28061 21.3203 6.22053 20.6769 6.22097L8.31974 6.22905L4.60193 10.3203L0 6.23454Z" fill="#F6543B"/>
<path d="M5.84741 36.2887C4.11982 36.2887 2.71263 35.8392 1.62768 34.9408C0.542727 34.0423 0 32.8671 0 31.4156V20.5713C2.33329 22.6209 6.081 22.8077 8.3189 20.9437V30.0677H20.2169C18.5923 31.8223 18.447 34.4091 20.0975 36.2887H5.84741Z" fill="#C75EEB"/>
<path d="M16.6172 30.0672H22.4255C24.1939 30.0672 25.5603 29.7648 26.5248 29.16C27.4892 28.5552 27.9715 27.6998 27.9715 26.5939V24.3129C27.9715 23.3106 27.5493 22.4983 26.7057 21.8763C25.9047 21.286 24.8499 20.9757 23.542 20.9456C21.9162 17.586 27.8222 15.8158 29.8403 17.0033V17.0551C31.7694 17.6427 33.3267 18.5932 34.5122 19.9065C35.6976 21.2196 36.2905 22.6886 36.2905 24.3129V27.0086C36.2905 29.8423 35.0948 32.0977 32.7037 33.7739C30.3125 35.4499 27.0872 36.2881 23.0283 36.2881H17.1676C17.69 35.6045 18.0318 34.8205 18.1283 34.0017C18.3075 32.4834 17.6983 31.086 16.6172 30.0672Z" fill="#4EBFE9"/>
<path d="M0 20.5715V6.08203C1.58133 7.43803 4.01504 7.98634 6.28233 7.27268C7.06922 7.02502 7.71421 6.71699 8.3189 6.22124C8.36273 6.2507 8.27474 6.20102 8.3189 6.22933V6.22124V15.0342H13.5845C14.9106 16.9144 14.6793 19.2475 13.051 20.944H8.3189C6.081 22.808 2.33329 22.6211 0 20.5715Z" fill="#61E061"/>
<path fill-rule="evenodd" clip-rule="evenodd" d="M25.5122 14.2793C27.955 14.2793 31.5321 15.8044 29.8396 17.0033C27.8143 18.438 26.1807 19.9281 23.0208 20.9432C20.3096 20.6828 21.0893 18.9983 21.0893 17.6938C21.0893 15.808 23.0695 14.2793 25.5122 14.2793Z" fill="#FAC900"/>
</svg>
